<svg width="110" height="110" viewBox="0 0 110 110" fill="none" xmlns="http://www.w3.org/2000/svg">
<path d="M88.0865 53.3748C88.3714 53.8135 88.632 54.2102 88.9844 54.5443C89.3289 54.871 89.7351 55.088 90.1842 55.2071C90.4972 55.2901 90.8277 55.3366 91.1517 55.3438C92.7865 55.3795 94.4218 55.3995 96.057 55.4202C97.673 55.4406 99.2891 55.4554 100.905 55.4725C101.466 55.4785 102.023 55.4394 102.554 55.2423C103.045 55.06 103.496 54.8119 103.819 54.3417C103.547 53.662 103.218 53.015 102.722 52.4671C102.39 52.1008 101.97 51.8744 101.488 51.7608C101.014 51.6488 100.536 51.6517 100.054 51.6911C99.2682 51.7554 98.4815 51.8108 97.6949 51.8647C96.8318 51.9239 95.9677 51.9698 95.105 52.0353C94.4731 52.0832 93.8434 52.1621 93.2114 52.2114C92.3294 52.2802 91.4463 52.3363 90.5634 52.3937C90.0988 52.4238 89.6498 52.527 89.2129 52.6797C88.8117 52.8199 88.4401 53.0154 88.0865 53.3748ZM104.159 53.8993C104.253 53.8112 104.33 53.7578 104.382 53.6862C104.643 53.3284 104.893 52.9628 105.155 52.6057C105.348 52.3418 105.542 52.077 105.756 51.8297C106.358 51.1338 107.055 50.5723 107.963 50.3205C108.652 50.1297 109.325 50.157 110 50.4311C109.97 50.6694 109.837 50.8393 109.725 51.0134C109.329 51.6286 108.931 52.2429 108.52 52.8477C108.119 53.4365 107.702 54.0139 107.289 54.5949C106.653 55.4916 105.952 56.3356 105.192 57.1293C104.915 57.4193 104.601 57.6816 104.275 57.9167C103.552 58.4388 102.73 58.6935 101.839 58.693C101.339 58.6929 100.839 58.6561 100.341 58.6213C99.4384 58.5583 98.5367 58.4848 97.6348 58.4152C96.3874 58.3189 95.1396 58.2265 93.8926 58.1242C93.1835 58.066 92.476 57.9874 91.7672 57.9248C90.7926 57.8388 90.0072 57.4004 89.3902 56.6528C89.0828 56.2803 88.8327 55.8688 88.6262 55.4315C88.4453 55.0485 88.2668 54.6644 88.0835 54.2825C87.9928 54.0934 87.8939 53.9083 87.8119 53.7475C87.604 53.6853 87.5266 53.8221 87.4363 53.9081C87.0021 54.3217 86.5349 54.6925 86.0145 54.9902C84.7384 55.7201 83.3829 55.933 81.9475 55.5896C81.9125 55.5812 81.8817 55.5551 81.849 55.5372C81.8221 55.4186 81.908 55.3685 81.9843 55.3106C82.9192 54.6 83.8657 53.904 84.7836 53.1721C85.309 52.7529 85.8053 52.2929 86.2836 51.8198C87.277 50.8372 88.4685 50.2533 89.8319 50.0207C90.9126 49.8362 92.0002 49.6923 93.0851 49.5323C94.5133 49.3219 95.9417 49.112 97.3704 48.9046C98.1124 48.797 98.8531 48.6757 99.5982 48.5964C100.408 48.5104 101.115 48.7812 101.716 49.3251C102.061 49.6377 102.328 50.0159 102.572 50.409C102.92 50.9664 103.189 51.5636 103.44 52.1682C103.632 52.6301 103.805 53.0998 103.99 53.5644C104.031 53.6674 104.09 53.7634 104.159 53.8993Z" fill="currentColor"/>
<path d="M53.3785 21.9009C53.7384 21.6971 54.0379 21.4917 54.3136 21.2528C54.81 20.8227 55.1393 20.2888 55.2507 19.639C55.312 19.2804 55.3586 18.9153 55.3659 18.5522C55.3946 17.1289 55.405 15.7053 55.4223 14.2817C55.4441 12.4928 55.4631 10.7039 55.4896 8.91512C55.4974 8.38808 55.3911 7.8828 55.2298 7.3875C55.0963 6.97716 54.8452 6.63763 54.5467 6.33086C54.423 6.20388 54.2844 6.18099 54.1282 6.26107C53.6662 6.49793 53.1957 6.72035 52.7758 7.03068C52.2457 7.4225 51.8884 7.9233 51.7552 8.58282C51.6662 9.02287 51.6622 9.46099 51.6961 9.90328C51.7904 11.1298 51.8879 12.3562 51.9796 13.5828C52.0368 14.3489 52.0846 15.1158 52.1387 15.882C52.2106 16.8986 52.2853 17.9148 52.3572 18.9312C52.3938 19.4496 52.4444 19.9668 52.5827 20.4689C52.7265 20.991 52.9365 21.4812 53.3785 21.9009ZM53.8971 5.82488C53.8045 5.73147 53.7476 5.65578 53.6741 5.60297C53.3146 5.34433 52.9498 5.09332 52.589 4.83672C52.0854 4.47857 51.6137 4.0839 51.2037 3.61881C50.7899 3.14946 50.4789 2.62282 50.3212 2.01447C50.1478 1.34539 50.1687 0.686276 50.4239 0.0633841C50.5582 -0.0102803 50.6383 0.0537197 50.7168 0.104389C51.461 0.584226 52.2118 1.05419 52.9456 1.54939C54.0948 2.32501 55.2335 3.1172 56.2742 4.0375C56.7063 4.41956 57.1374 4.8067 57.5322 5.2262C58.4277 6.17804 58.7777 7.34365 58.7068 8.62382C58.6322 9.9684 58.5373 11.3125 58.3906 12.6526C58.2985 13.4938 58.2644 14.3414 58.1968 15.1854C58.1477 15.7989 58.0855 16.4113 58.0309 17.0243C58.0207 17.1392 58.0113 17.2551 58.0148 17.3701C58.0284 17.8166 57.931 18.2506 57.8542 18.6844C57.7101 19.4992 57.2664 20.1445 56.6205 20.6422C56.302 20.8876 55.9537 21.101 55.5981 21.2897C55.1057 21.5512 54.5928 21.7741 54.0905 22.0174C53.9567 22.0822 53.83 22.1614 53.6824 22.2436C53.7994 22.4843 53.9705 22.6395 54.125 22.8067C54.7209 23.4512 55.1768 24.1816 55.4639 25.0124C55.8196 26.0418 55.8363 27.0824 55.5831 28.1154C55.4308 28.186 55.3792 28.0974 55.3235 28.0235C54.7442 27.2551 54.1646 26.4867 53.5868 25.717C53.1005 25.069 52.5605 24.4686 51.9914 23.8929C51.8155 23.7151 51.6444 23.5316 51.4817 23.3416C50.7781 22.5202 50.3129 21.5759 50.102 20.5182C49.9439 19.7258 49.8247 18.9253 49.7033 18.1261C49.5619 17.1944 49.4347 16.2606 49.3053 15.3271C49.115 13.9544 48.9426 12.5791 48.7314 11.2097C48.6664 10.7887 48.6262 10.3724 48.6253 9.94856C48.6244 9.51034 48.7626 9.11617 48.9872 8.74927C49.2111 8.3838 49.5088 8.08538 49.848 7.8245C50.5418 7.29084 51.3268 6.92628 52.1261 6.58961C52.587 6.39547 53.0569 6.2224 53.5198 6.03285C53.6392 5.98391 53.7477 5.90831 53.8971 5.82488Z" fill="currentColor"/>
<path d="M56.6215 88.0933C56.2546 88.3001 55.9342 88.5381 55.6356 88.81C55.1474 89.2546 54.8472 89.8018 54.7433 90.4506C54.6917 90.7722 54.6504 91.0987 54.6443 91.4238C54.6238 92.5205 54.6425 93.6183 54.6072 94.7143C54.5396 96.8114 54.5342 98.9087 54.5211 101.006C54.5183 101.435 54.5788 101.849 54.6731 102.261C54.7686 102.679 54.9533 103.06 55.2216 103.395C55.351 103.557 55.4766 103.733 55.703 103.797C56.2892 103.541 56.8621 103.27 57.3596 102.867C57.8217 102.492 58.1348 102.026 58.2556 101.429C58.3329 101.047 58.3546 100.666 58.3319 100.281C58.2944 99.6479 58.2525 99.0145 58.2022 98.3819C58.1154 97.2899 58.0121 96.1993 57.9319 95.1068C57.8304 93.7256 57.7473 92.3431 57.6507 90.9615C57.6305 90.6739 57.6048 90.3842 57.5475 90.1023C57.475 89.7454 57.3921 89.3866 57.2681 89.0453C57.1382 88.6874 56.9413 88.3584 56.6215 88.0933ZM54.5022 81.748C54.6825 81.9821 54.7987 82.1326 54.9144 82.2835C55.5587 83.1239 56.1915 83.9733 56.8516 84.801C57.1989 85.2367 57.5931 85.635 57.9675 86.049C58.1742 86.2776 58.3907 86.4973 58.5903 86.7317C59.4423 87.7313 59.863 88.9183 60.0596 90.1945C60.2031 91.1265 60.3159 92.0631 60.4523 92.9962C60.6246 94.1758 60.8114 95.3536 60.9834 96.5333C61.086 97.238 61.1764 97.9446 61.2645 98.6514C61.3144 99.0515 61.3638 99.4529 61.3866 99.8552C61.428 100.59 61.1484 101.207 60.6477 101.733C60.2859 102.113 59.8735 102.434 59.4112 102.674C58.831 102.975 58.2348 103.247 57.6367 103.511C57.2324 103.69 56.8126 103.833 56.4006 103.995C56.3147 104.029 56.2333 104.074 56.114 104.131C56.1742 104.218 56.2023 104.289 56.2544 104.329C56.4528 104.481 56.6606 104.621 56.8617 104.77C57.3103 105.102 57.7737 105.417 58.2009 105.775C58.9882 106.434 59.5655 107.238 59.758 108.272C59.8659 108.851 59.8222 109.417 59.5807 109.942C59.3993 110.02 59.298 109.904 59.1928 109.835C58.1963 109.178 57.201 108.519 56.2102 107.853C55.202 107.175 54.2491 106.425 53.3395 105.62C53.1376 105.442 52.9381 105.26 52.7456 105.071C51.6412 103.99 51.195 102.664 51.3085 101.139C51.4229 99.6028 51.5455 98.0675 51.6709 96.5325C51.7713 95.3048 51.8861 94.0784 51.9844 92.8506C52.0182 92.4292 52.0472 92.0096 52.1051 91.589C52.2302 90.6797 52.6631 89.9629 53.3524 89.3828C53.7233 89.0707 54.1393 88.8293 54.5742 88.6195C54.9556 88.4355 55.3398 88.2571 55.7218 88.0741C55.9111 87.9835 56.0981 87.8879 56.2649 87.8052C56.311 87.5774 56.1578 87.4893 56.0591 87.3849C55.6734 86.9773 55.3245 86.5414 55.0453 86.0556C54.568 85.2254 54.257 84.3455 54.2806 83.3693C54.2913 82.9266 54.2652 82.482 54.3876 82.0492C54.407 81.9803 54.4382 81.9147 54.5022 81.748Z" fill="currentColor"/>
<path d="M21.9254 56.6018C21.7231 56.3136 21.567 56.0707 21.3904 55.8437C20.8254 55.1179 20.0659 54.735 19.161 54.6678C18.356 54.6081 17.5476 54.5747 16.7403 54.5681C14.5271 54.5501 12.3137 54.5523 10.1004 54.5466C9.58085 54.5453 9.06133 54.548 8.54192 54.5425C8.06961 54.5374 7.63169 54.6735 7.20456 54.8551C6.88192 54.9923 6.60406 55.1983 6.35325 55.4405C6.20012 55.5884 6.17804 55.6757 6.2629 55.8496C6.41491 56.1606 6.5601 56.4769 6.73816 56.7729C6.97594 57.1679 7.2298 57.5521 7.62121 57.8262C8.23627 58.2569 8.9256 58.3642 9.65187 58.327C9.82433 58.3181 9.99527 58.2815 10.1678 58.2693C11.7409 58.1583 13.3143 58.0496 14.8876 57.9407C15.3481 57.9087 15.809 57.8804 16.2694 57.8464C16.9599 57.7955 17.6512 57.7502 18.3404 57.6853C18.9912 57.624 19.6416 57.5542 20.2886 57.4625C20.813 57.3882 21.2747 57.1461 21.6986 56.835C21.7723 56.7808 21.8284 56.7029 21.9254 56.6018ZM0 59.5409C0.0673561 59.2981 0.196269 59.1286 0.307376 58.9536C1.21577 57.5238 2.15825 56.1159 3.19138 54.7735C3.73033 54.0732 4.32331 53.4126 4.91781 52.7577C5.29407 52.3433 5.75203 52.0196 6.25456 51.7628C6.81315 51.4772 7.40806 51.3344 8.02963 51.3145C8.64468 51.2949 9.2576 51.3206 9.87236 51.3902C10.6364 51.4767 11.4078 51.4949 12.1749 51.5564C13.287 51.6454 14.3979 51.7497 15.5098 51.8419C16.3342 51.9102 17.1593 51.9693 17.9841 52.0333C19.1395 52.1229 20.1016 52.5743 20.7706 53.5509C20.9873 53.8673 21.1882 54.197 21.3678 54.5357C21.5749 54.9263 21.7494 55.3341 21.9402 55.7334C22.0301 55.9216 22.1004 56.1218 22.2504 56.2864C22.4719 56.2609 22.5877 56.0935 22.7224 55.9664C23.0877 55.6212 23.4816 55.3152 23.9111 55.0549C25.1545 54.3018 26.4957 54.1095 27.9126 54.3633C27.9987 54.3786 28.0787 54.4287 28.153 54.4592C28.1358 54.6538 27.9928 54.6997 27.8907 54.7781C27.0206 55.4458 26.1394 56.0994 25.2809 56.7819C24.8303 57.1402 24.4104 57.539 23.9915 57.9353C23.501 58.3994 22.9978 58.8432 22.4124 59.1877C21.7916 59.5527 21.1201 59.7921 20.4213 59.9307C19.6111 60.0914 18.7902 60.1994 17.9725 60.3208C17.0409 60.4591 16.1075 60.5859 15.1751 60.7196C14.223 60.8561 13.2715 60.9969 12.3193 61.1322C11.7291 61.2161 11.1371 61.2868 10.5475 61.3751C9.71241 61.5002 8.98584 61.273 8.35928 60.7174C7.98201 60.383 7.67768 59.9871 7.41986 59.5546C6.9151 58.7078 6.55176 57.7966 6.19829 56.8808C6.12208 56.6834 6.05035 56.484 5.966 56.2901C5.93863 56.2271 5.87769 56.1787 5.81288 56.1004C5.59636 56.3324 5.42909 56.5623 5.26924 56.8008C4.93714 57.2963 4.59904 57.7875 4.19958 58.2335C3.81162 58.6667 3.38124 59.0479 2.87759 59.3414C2.16974 59.7539 0.976868 59.9924 0 59.5409Z" fill="currentColor"/>
<path d="M12.4672 30.1933C12.3499 30.2334 12.2247 30.2688 12.1055 30.3182C11.5007 30.5685 10.8975 30.8221 10.2939 31.075C9.55095 31.3865 8.77533 31.4931 7.9754 31.4431C7.0371 31.3844 6.28682 30.9627 5.69038 30.2495C5.66902 30.2239 5.67176 30.1782 5.65691 30.1146C5.85074 29.9433 6.10022 29.8405 6.33678 29.7258C7.80956 29.0125 9.29241 28.3185 10.8206 27.7326C11.6279 27.423 12.458 27.1688 13.2882 26.925C13.673 26.8121 14.0809 26.7686 14.4817 26.7212C14.8685 26.6754 15.2483 26.7699 15.6241 26.8517C16.3326 27.0059 16.9577 27.3448 17.5428 27.7593C18.0927 28.1487 18.6327 28.552 19.1766 28.9499C20.7927 30.1324 22.408 31.3161 24.0252 32.4972C24.322 32.714 24.6295 32.9096 25.0144 32.9322C25.2737 32.9474 25.5133 32.9171 25.7057 32.7171C25.7422 32.6793 25.8011 32.6629 25.8633 32.6291C25.8986 32.6787 25.9514 32.7194 25.9573 32.766C26.0861 33.7861 26.3652 34.7628 26.7884 35.6993C26.8028 35.731 26.7935 35.7733 26.7954 35.8148C26.7616 35.9207 26.6634 35.9491 26.5718 35.9647C26.345 36.0034 26.1167 36.0416 25.8876 36.0562C25.6381 36.0723 25.387 36.0606 25.1366 36.0629C24.882 36.0651 24.6416 36.1291 24.4114 36.2352C24.0674 36.3938 23.8881 36.6795 23.8117 37.0352C23.7551 37.2989 23.835 37.5354 24.0209 37.7252C24.1845 37.8922 24.3804 38.0105 24.657 38.0272C24.6985 37.9235 24.7338 37.8195 24.7813 37.7216C24.8345 37.6122 24.9693 37.5781 25.077 37.6375C25.3307 37.7774 25.3963 38.0497 25.2286 38.2679C25.1169 38.4133 24.9711 38.4921 24.7865 38.5071C24.143 38.5595 23.4673 37.9932 23.4409 37.3434C23.4192 36.8142 23.605 36.3602 24.0564 36.0461C24.1646 35.9708 24.2833 35.9107 24.3944 35.8453C24.3809 35.7992 24.3805 35.7456 24.3602 35.7366C23.6539 35.422 23.01 34.9985 22.3581 34.5899C20.0904 33.1685 17.8271 31.74 15.5573 30.322C14.8952 29.9083 14.1712 29.7572 13.3969 29.9126C13.2869 29.9347 13.1832 29.988 13.0558 30.0346C13.0069 30.6525 12.8898 31.2524 12.998 31.8745C13.1237 32.5959 13.4504 33.1831 14.0403 33.6077C14.3512 33.8316 14.6875 34.0251 15.0279 34.2025C17.2298 35.3511 19.4349 36.4938 21.6412 37.634C23.095 38.3853 24.5532 39.1283 26.0081 39.8771C26.5387 40.1502 27.0648 40.432 27.5951 40.7055C28.1286 40.9806 28.6155 41.3239 29.0726 41.7104C29.5955 42.1525 29.996 42.6884 30.2835 43.3095C30.4677 43.7073 30.5147 44.1211 30.4273 44.5491C30.4166 44.6013 30.3737 44.6469 30.3403 44.7051C30.2853 44.6738 30.2207 44.6581 30.1917 44.6171C29.8925 44.1934 29.473 43.9196 29.0175 43.7061C28.1462 43.2973 27.2681 42.9029 26.3868 42.5158C25.2059 41.997 24.0192 41.4911 22.8352 40.9791C21.6869 40.4825 20.539 39.9847 19.3904 39.4884C17.9063 38.8469 16.4215 38.2069 14.9374 37.5652C14.5134 37.3819 14.0915 37.1942 13.6679 37.01C12.7851 36.6261 12.2769 35.9583 12.1045 35.0108C11.9929 34.3972 12.0004 33.7899 12.0645 33.1736C12.1522 32.3291 12.3202 31.4996 12.4778 30.6675C12.505 30.5237 12.5801 30.3712 12.4672 30.1933Z" fill="currentColor"/>
<path d="M74.2424 24.4131C74.8283 23.1685 75.6068 22.066 76.3199 20.9245C77.3601 19.2591 78.4088 17.5991 79.4522 15.9358C79.5749 15.7401 79.6954 15.5422 79.8023 15.3378C80.1462 14.6803 80.2198 13.9855 80.0666 13.2639C80.0402 13.1398 79.956 13.0653 79.8297 13.0435C79.1993 12.9347 78.5662 12.8998 77.9363 13.0299C77.3097 13.1594 76.7884 13.4766 76.4154 14.001C76.2041 14.2981 76.0099 14.6111 75.8417 14.9345C75.0865 16.3854 74.3468 17.8443 73.5951 19.297C72.6399 21.143 71.6769 22.9851 70.7203 24.8303C70.2596 25.7189 69.8098 26.613 69.3482 27.5011C69.0001 28.1707 68.5774 28.7889 68.0445 29.3278C67.6198 29.7574 67.1385 30.1052 66.5742 30.3263C66.152 30.4917 65.7221 30.5415 65.2711 30.3594C65.3064 30.297 65.3214 30.232 65.3618 30.2049C65.8285 29.8907 66.1007 29.4232 66.3372 28.9382C66.6493 28.2985 66.9409 27.6483 67.2247 26.9954C67.9614 25.3013 68.6867 23.6023 69.4208 21.9072C70.4913 19.435 71.5658 16.9646 72.6377 14.4932C72.7525 14.2283 72.8604 13.9606 72.974 13.6952C73.4118 12.673 74.2172 12.1554 75.2954 12.045C75.9282 11.9802 76.5657 11.992 77.1956 12.0986C77.9728 12.23 78.7481 12.3733 79.5241 12.5127C79.6184 12.5296 79.7124 12.5595 79.8058 12.4253C79.6972 12.1478 79.584 11.8448 79.4606 11.5461C79.3355 11.2437 79.2047 10.9437 79.0687 10.646C78.7695 9.99061 78.5938 9.30128 78.5453 8.5862C78.4674 7.44074 78.8496 6.46977 79.7164 5.70311C79.7548 5.66913 79.8201 5.66567 79.9017 5.6383C80.0406 5.89216 80.1923 6.13493 80.3111 6.39286C80.794 7.44145 81.2571 8.49911 81.746 9.54486C82.1876 10.4893 82.5169 11.4747 82.8455 12.4603C82.979 12.8609 83.0883 13.2719 83.1751 13.6853C83.457 15.0276 83.1243 16.2431 82.3663 17.3572C82.0524 17.8186 81.7164 18.265 81.3866 18.7156C80.1476 20.4088 78.9052 22.0999 77.6686 23.795C77.4991 24.0274 77.3309 24.2668 77.2043 24.5237C76.9951 24.9487 76.9646 25.3752 77.3235 25.7557C77.3435 25.7769 77.34 25.8202 77.3547 25.8861C76.8256 26.0481 76.263 26.0792 75.7374 26.2536C75.2113 26.4279 74.6912 26.6206 74.1675 26.8056C74.0157 26.6314 73.9937 26.4397 73.9831 26.2506C73.9668 25.9625 73.9651 25.6735 73.9587 25.3847C73.9518 25.0752 73.921 24.7708 73.8029 24.4796C73.6616 24.1314 73.4041 23.9204 73.0476 23.825C72.7174 23.7364 72.4355 23.8244 72.2188 24.0871C72.1341 24.1895 72.0695 24.3103 72.0072 24.4288C71.9477 24.5423 71.9897 24.6377 72.1153 24.708C72.1316 24.7172 72.1538 24.7161 72.1701 24.7251C72.341 24.8192 72.3894 24.8986 72.3586 25.0305C72.3148 25.2176 72.163 25.3347 71.9843 25.3197C71.7675 25.3017 71.6252 25.1739 71.5573 24.9827C71.5138 24.8604 71.4996 24.7178 71.511 24.5877C71.568 23.9355 72.2508 23.2 73.136 23.4808C73.5369 23.6079 73.872 23.8116 74.054 24.2119C74.0773 24.2633 74.1088 24.3114 74.1405 24.3583C74.1496 24.372 74.1723 24.3763 74.2424 24.4131Z" fill="currentColor"/>
<path d="M97.4516 79.8534C97.8779 79.6823 98.1985 79.5576 98.5159 79.4251C98.8889 79.2694 99.2569 79.1015 99.631 78.9484C100.188 78.7204 100.77 78.5888 101.368 78.5399C102.539 78.4443 103.526 78.826 104.304 79.7166C104.328 79.7441 104.336 79.7853 104.365 79.8497C104.323 79.8921 104.281 79.9607 104.22 79.9899C103.284 80.4404 102.347 80.8917 101.405 81.3296C100.899 81.5647 100.383 81.7799 99.8679 81.9945C98.8009 82.4394 97.7107 82.817 96.5896 83.103C95.1777 83.463 93.8814 83.1931 92.6884 82.3824C92.2427 82.0794 91.8086 81.759 91.3735 81.4408C89.648 80.1794 87.9247 78.9148 86.1988 77.6538C85.997 77.5065 85.7937 77.3557 85.5736 77.2397C85.1179 76.9996 84.6606 76.9316 84.2358 77.3206C84.2129 77.3417 84.1674 77.338 84.0975 77.3536C83.9949 77.1511 84.0209 76.9149 83.9694 76.6985C83.9204 76.4927 83.8955 76.2813 83.8466 76.0754C83.7932 75.851 83.7311 75.628 83.6601 75.4084C83.595 75.2071 83.5138 75.0112 83.438 74.8135C83.3566 74.6009 83.273 74.3892 83.1883 74.1713C83.4216 73.9887 83.6721 73.973 83.9178 73.9586C84.1483 73.9452 84.3813 73.9688 84.6108 73.9489C84.8779 73.926 85.1472 73.8931 85.4067 73.8287C85.6952 73.7572 85.9244 73.5885 86.0708 73.3138C86.379 72.735 86.1635 72.1937 85.5337 71.9861C85.4155 71.9471 85.3316 71.9899 85.2672 72.1237C85.259 72.1408 85.2567 72.1607 85.2526 72.1796C85.2302 72.2822 85.1745 72.3547 85.0656 72.3682C84.9328 72.3848 84.7907 72.3009 84.7369 72.181C84.6546 71.9979 84.692 71.7734 84.8468 71.6573C84.9358 71.5907 85.0458 71.5359 85.154 71.5138C85.776 71.3871 86.565 71.9881 86.5654 72.642C86.5657 73.2734 86.3497 73.767 85.7637 74.0589C85.7295 74.0759 85.6932 74.0886 85.6596 74.1068C85.6431 74.1156 85.6307 74.132 85.606 74.1547C85.635 74.2002 85.6532 74.2689 85.6935 74.286C86.3888 74.5815 87.0122 75.0035 87.6478 75.4018C89.7856 76.741 91.9177 78.0891 94.053 79.4323C94.2485 79.5553 94.449 79.6707 94.6502 79.784C95.285 80.1414 95.9665 80.1876 96.6686 80.0738C96.8937 80.0373 96.973 79.9585 96.9902 79.7349C97.0285 79.2363 97.0896 78.7385 97.0277 78.2361C96.9335 77.4716 96.6086 76.8377 95.9747 76.3874C95.6931 76.1875 95.3968 76.0032 95.0906 75.8439C92.9047 74.7064 90.7152 73.576 88.5254 72.4463C87.0882 71.7047 85.6463 70.9727 84.2112 70.2272C83.4257 69.8191 82.6405 69.4087 81.8728 68.9684C81.2508 68.6115 80.704 68.1486 80.2719 67.5713C80.0656 67.2956 79.8862 66.9947 79.7321 66.6865C79.5081 66.2389 79.5013 65.7865 79.6645 65.2822C79.7144 65.3076 79.7821 65.3194 79.8077 65.3586C80.1281 65.8506 80.6229 66.1179 81.1278 66.3555C82.0333 66.7817 82.9488 67.1872 83.8658 67.5884C85.4352 68.275 87.0088 68.9522 88.5812 69.6318C89.6769 70.1055 90.7741 70.5755 91.8698 71.0491C93.036 71.553 94.2011 72.0599 95.3673 72.564C95.6324 72.6785 95.9019 72.7827 96.1662 72.8989C96.5021 73.0465 96.8248 73.215 97.1001 73.4659C97.5129 73.842 97.7752 74.3 97.8831 74.8476C98.0146 75.514 98.0159 76.1786 97.9444 76.8567C97.8511 77.7399 97.6659 78.6043 97.5085 79.4748C97.4923 79.5641 97.4813 79.6545 97.4516 79.8534Z" fill="currentColor"/>
<path d="M35.8149 85.5214C34.9218 87.2795 33.8287 88.8177 32.842 90.4205C32.0041 91.7814 31.1574 93.137 30.3032 94.4876C30.0153 94.9431 29.9061 95.448 29.8531 95.9646C29.8221 96.2671 29.9102 96.5716 29.9866 96.8561C30.7076 97.1152 31.7233 97.1172 32.378 96.8854C33.0479 96.6482 33.53 96.1959 33.874 95.5919C34.1501 95.1072 34.4038 94.6093 34.6615 94.1142C35.3549 92.7825 36.0473 91.4502 36.736 90.116C37.5043 88.6278 38.2668 87.1367 39.0342 85.648C39.5899 84.5699 40.1455 83.4918 40.7088 82.4177C41.0503 81.7664 41.4679 81.1672 41.9877 80.6431C42.3295 80.2983 42.7232 80.0252 43.1486 79.793C43.4615 79.6224 43.8034 79.5695 44.1478 79.5323C44.3362 79.5121 44.5248 79.5419 44.6966 79.6674C44.6596 79.73 44.6428 79.7939 44.6015 79.8232C44.1775 80.1244 43.9242 80.5583 43.7025 81.0075C43.4129 81.5942 43.1417 82.1905 42.8792 82.7899C42.1995 84.3416 41.526 85.896 40.8557 87.4518C39.9265 89.6084 39.0047 91.7682 38.075 93.9245C37.7169 94.7551 37.3489 95.5816 36.9796 96.4074C36.5739 97.3143 35.852 97.8056 34.8838 97.9198C34.4272 97.9736 33.9609 97.9655 33.4997 97.9548C32.9413 97.9416 32.3874 97.867 31.839 97.7556C31.3682 97.66 30.8964 97.5693 30.4243 97.4806C30.3726 97.4708 30.3158 97.4879 30.2251 97.4956C30.2356 97.5791 30.2298 97.6534 30.2551 97.7148C30.5037 98.3202 30.7438 98.9297 31.0136 99.5256C31.3132 100.187 31.4544 100.886 31.4725 101.599C31.501 102.719 31.1036 103.665 30.1638 104.383C30.1075 104.32 30.0482 104.274 30.0166 104.213C29.3824 103.001 28.8354 101.749 28.2836 100.499C27.871 99.5635 27.5226 98.6061 27.1977 97.6395C26.9892 97.0195 26.8154 96.3893 26.76 95.7299C26.6865 94.8577 26.8705 94.0427 27.2735 93.2774C27.4523 92.9378 27.6614 92.6108 27.8872 92.3002C29.4046 90.2132 30.932 88.1334 32.4503 86.047C32.6077 85.8307 32.7526 85.5975 32.8566 85.3523C33.016 84.9769 33.018 84.601 32.7156 84.274C32.6797 84.2352 32.6631 84.1785 32.6256 84.1074C32.7578 83.993 32.9196 84.0292 33.0598 83.9999C33.2293 83.9645 33.4022 83.9456 33.5723 83.9126C33.7234 83.8833 33.873 83.846 34.0225 83.8096C34.1721 83.7731 34.3225 83.7386 34.4696 83.6939C34.6168 83.6491 34.7613 83.5948 34.9054 83.5406C35.0677 83.4797 35.2283 83.4148 35.3893 83.3506C35.5292 83.2948 35.6686 83.2376 35.8055 83.1821C35.9791 83.3151 36.013 83.4851 36.0236 83.6554C36.0415 83.9435 36.048 84.2325 36.0498 84.5213C36.0519 84.8315 36.0793 85.1365 36.1784 85.4325C36.312 85.8311 36.5854 86.0699 36.9915 86.1763C37.2376 86.2407 37.4596 86.1884 37.6477 86.0464C37.8654 85.8817 38.0182 85.6617 38.0243 85.3498C37.9513 85.3162 37.8861 85.2804 37.8169 85.2559C37.6897 85.2107 37.632 85.1208 37.6462 84.9915C37.6624 84.845 37.763 84.7349 37.8925 84.7041C38.1507 84.6429 38.4188 84.7873 38.4671 85.0526C38.5006 85.2369 38.5145 85.4472 38.4593 85.6209C38.2693 86.2178 37.7269 86.7504 36.8882 86.5188C36.48 86.406 36.1585 86.1789 35.9595 85.7959C35.9247 85.7288 35.8891 85.6622 35.8149 85.5214Z" fill="currentColor"/>
<path d="M27.6422 73.7166C26.5773 73.1056 25.5204 72.9387 24.422 73.4958C23.9764 73.7218 23.5407 73.9695 23.1122 74.2269C21.7758 75.0298 20.4443 75.8407 19.1124 76.6509C17.9119 77.3811 16.7136 78.115 15.5137 78.8462C14.199 79.6473 12.8854 80.4503 11.567 81.2454C11.2549 81.4335 10.9397 81.6173 10.5825 81.7215C9.06573 82.1641 7.73 81.824 6.55727 80.795C6.10765 80.4006 5.72275 79.9476 5.43368 79.3838C5.49921 79.3719 5.5571 79.3414 5.58936 79.3587C6.18213 79.6757 6.77165 79.6102 7.37338 79.377C8.18369 79.0631 8.94211 78.6432 9.71355 78.2513C11.2748 77.458 12.8261 76.6448 14.3812 75.8393C16.5174 74.7327 18.6529 73.6246 20.7899 72.5194C21.3027 72.2542 21.8181 71.994 22.3362 71.7392C23.3361 71.2472 24.3359 71.2704 25.3398 71.7392C25.8134 71.9604 26.2482 72.2427 26.6793 72.5332C26.9666 72.7268 27.2498 72.9267 27.5382 73.1188C27.6135 73.1689 27.7009 73.2008 27.8155 73.2573C27.8727 73.1045 27.9241 72.9848 27.963 72.8612C28.165 72.2184 28.3748 71.5818 28.7153 70.992C29.3569 69.8809 30.283 69.1079 31.4552 68.6139C31.5438 68.5766 31.636 68.5476 31.728 68.5196C31.7823 68.5032 31.8396 68.4963 31.8904 68.4862C31.9779 68.5489 31.9492 68.62 31.9204 68.6922C31.6214 69.443 31.3264 70.1955 31.023 70.9446C30.6321 71.9098 30.3133 72.9003 30.0693 73.9101C29.7307 75.3114 28.9877 76.4501 27.9217 77.3903C27.2868 77.9502 26.6317 78.4874 25.9793 79.0271C24.9709 79.8612 23.9575 80.6893 22.9453 81.5188C22.469 81.9089 21.9855 82.2905 21.5148 82.6873C21.31 82.86 21.1053 83.0428 20.9424 83.2534C20.6323 83.6546 20.5722 84.0912 20.8658 84.5385C20.8869 84.5707 20.911 84.6013 20.9289 84.6351C20.9368 84.65 20.9324 84.6713 20.9335 84.6885C20.8993 84.7896 20.8227 84.7698 20.7473 84.7565C20.4062 84.6965 20.0638 84.6428 19.7239 84.5763C19.0031 84.4354 18.2741 84.387 17.5418 84.3708C17.4841 84.3696 17.4262 84.3687 17.3688 84.3634C17.2035 84.3481 17.1082 84.2704 17.102 84.1188C17.0887 83.7926 17.0658 83.4666 17.145 83.1421C17.2134 82.862 17.279 82.5784 17.3095 82.2925C17.3401 82.0076 17.3609 81.7132 17.323 81.4314C17.2456 80.857 16.8995 80.4554 16.4025 80.1772C16.2242 80.0775 16.0341 80.0711 15.843 80.1308C15.6115 80.2032 15.506 80.3108 15.3669 80.6103C15.4529 80.6976 15.5488 80.7879 15.6364 80.8858C15.7291 80.9895 15.741 81.1028 15.6817 81.2032C15.6092 81.3257 15.4641 81.3946 15.3398 81.3599C15.285 81.3447 15.2271 81.3269 15.1811 81.295C14.7268 80.9809 14.6539 80.4222 14.9621 80.0359C15.3075 79.603 15.9174 79.4476 16.4197 79.7289C17.1238 80.1232 17.6152 80.6905 17.7006 81.5345C17.7045 81.5727 17.708 81.6109 17.7147 81.6486C17.718 81.6672 17.7284 81.6844 17.7428 81.7199C17.787 81.7199 17.8602 81.7423 17.8865 81.7167C18.747 80.8786 19.7645 80.2462 20.7316 79.5493C22.4965 78.2774 24.2719 77.0202 26.0423 75.7559C26.4994 75.4295 26.9147 75.0587 27.2387 74.5952C27.4149 74.3432 27.5755 74.0826 27.6422 73.7166Z" fill="currentColor"/>
<path d="M36.7435 27.7467C36.9526 27.9542 37.1749 27.9638 37.3743 28.0242C38.1722 28.2655 38.927 28.5896 39.5994 29.0951C40.4899 29.7642 41.0887 30.6408 41.4757 31.6731C41.5009 31.7405 41.5028 31.8167 41.5132 31.8756C41.4005 31.9843 41.3121 31.9104 41.2302 31.8786C40.3154 31.5238 39.3991 31.1725 38.4893 30.8054C37.7011 30.4875 36.886 30.2566 36.0642 30.055C34.6661 29.7121 33.5205 28.9711 32.5936 27.8916C31.7034 26.8546 30.8412 25.7934 29.9705 24.7397C29.0505 23.6263 28.1375 22.5071 27.2151 21.3957C27.0689 21.2195 26.9034 21.0527 26.7225 20.9133C26.3329 20.6131 25.9133 20.5825 25.4841 20.8406C25.4513 20.8603 25.4227 20.8877 25.3889 20.9055C25.3557 20.9231 25.3185 20.9331 25.2828 20.9464C25.1852 20.9031 25.2281 20.8304 25.2391 20.7595C25.3396 20.1134 25.4495 19.4685 25.5327 18.8202C25.6009 18.2876 25.6364 17.7509 25.6894 17.1849C25.7777 17.1563 25.8814 17.1036 25.9899 17.0909C26.3772 17.0453 26.7578 17.0962 27.133 17.1973C27.5451 17.3084 27.9647 17.3437 28.3914 17.3346C29.0393 17.3206 29.4604 16.9505 29.7961 16.4528C29.9191 16.2702 29.932 16.0515 29.8615 15.8399C29.7866 15.6154 29.6757 15.4175 29.402 15.353C29.2898 15.4547 29.1839 15.5649 29.0632 15.6552C28.9835 15.7148 28.8832 15.7115 28.7911 15.6573C28.7007 15.6041 28.6438 15.5224 28.6505 15.4227C28.6566 15.3303 28.6769 15.227 28.7261 15.1512C29.0032 14.7242 29.6012 14.6446 29.9912 14.9743C30.4403 15.354 30.5549 15.9826 30.2376 16.4878C29.8204 17.1523 29.2524 17.6131 28.443 17.7114C28.4055 17.7159 28.368 17.7262 28.3322 17.7386C28.3164 17.7441 28.305 17.7616 28.277 17.787C28.2906 17.8294 28.2918 17.8946 28.325 17.9273C28.7949 18.3887 29.1759 18.9214 29.5555 19.4546C30.8619 21.2898 32.1619 23.1296 33.4716 24.9624C33.8631 25.5103 34.2664 26.0511 34.6869 26.5768C35.0277 27.0029 35.4635 27.3217 35.962 27.5494C36.0142 27.5732 36.069 27.5934 36.1246 27.6068C36.1604 27.6154 36.2 27.6083 36.2783 27.6083C36.3179 27.5514 36.3803 27.4815 36.4202 27.4006C36.6876 26.8597 36.8645 26.3011 36.8434 25.6826C36.8215 25.0431 36.5929 24.4772 36.2782 23.9442C35.5832 22.7673 34.8701 21.601 34.1602 20.433C33.2204 18.8864 32.2761 17.3427 31.3347 15.7972C30.5235 14.4653 29.7194 13.1291 28.9005 11.802C28.5331 11.2067 28.2335 10.5927 28.1208 9.89285C28.0617 9.52596 28.0655 9.17157 28.1278 8.80539C28.3814 7.31226 29.2408 6.25908 30.4979 5.48713C30.5269 5.46933 30.5701 5.47502 30.6068 5.46983C30.6697 5.56822 30.6107 5.6542 30.5757 5.74007C30.3845 6.20933 30.3965 6.68764 30.5607 7.15252C30.7076 7.56876 30.8796 7.97972 31.0803 8.37276C32.0784 10.327 33.0901 12.2742 34.0961 14.2244C35.3139 16.585 36.5311 18.9458 37.7479 21.307C37.9419 21.6834 38.1418 22.0572 38.3216 22.4402C38.7283 23.3069 38.7279 24.1864 38.3856 25.0751C38.1689 25.6378 37.8294 26.129 37.5005 26.6266C37.2574 26.9942 37.0072 27.3571 36.7435 27.7467Z" fill="currentColor"/>
<path d="M79.3672 104.562C79.3792 104.458 79.3712 104.398 79.3938 104.353C79.6723 103.793 79.6173 103.228 79.3997 102.672C79.2526 102.296 79.0882 101.925 78.9043 101.566C77.9128 99.6299 76.9131 97.698 75.9157 95.765C74.839 93.6781 73.762 91.5913 72.6844 89.5048C72.4813 89.1116 72.2729 88.7212 72.0703 88.3279C71.9468 88.0884 71.8255 87.8477 71.7106 87.6041C71.2639 86.6564 71.2825 85.7074 71.7002 84.7543C71.9102 84.2751 72.1945 83.8407 72.482 83.4075C72.6629 83.1348 72.8548 82.8694 73.0382 82.5982C73.1125 82.4884 73.177 82.3721 73.2636 82.2297C73.165 82.1712 73.0935 82.1095 73.0108 82.0829C72.4068 81.8883 71.7959 81.7194 71.2285 81.4197C69.9826 80.7616 69.1135 79.7727 68.5897 78.4728C68.5416 78.3534 68.5238 78.2218 68.4976 78.1184C68.5868 78.0015 68.6588 78.0572 68.7249 78.0836C69.5287 78.4063 70.3329 78.7281 71.135 79.055C72.1178 79.4555 73.1406 79.7289 74.1617 80.0054C75.2478 80.2997 76.1804 80.8522 76.978 81.6362C77.2659 81.9193 77.5432 82.2159 77.8002 82.5271C79.161 84.1748 80.5134 85.8293 81.8692 87.4809C82.199 87.8827 82.523 88.2898 82.8654 88.6808C83.0155 88.8524 83.1923 89.0082 83.3798 89.1382C83.7032 89.3623 84.0545 89.4054 84.4147 89.2102C84.5143 89.1563 84.6146 89.1038 84.747 89.0334C84.7858 89.3162 84.694 89.5521 84.664 89.7922C84.633 90.0405 84.5843 90.2865 84.5494 90.5344C84.5146 90.7819 84.4859 91.0304 84.4573 91.2787C84.4288 91.527 84.3952 91.775 84.3798 92.0241C84.3644 92.272 84.3688 92.5211 84.3642 92.7911C84.2338 92.8303 84.1305 92.8818 84.0238 92.8897C83.5201 92.9271 83.0265 92.8568 82.5367 92.7375C82.1416 92.6412 81.7405 92.5926 81.3371 92.6956C80.825 92.8266 80.4345 93.1167 80.1947 93.5925C80.1067 93.7671 80.0555 93.9494 80.1422 94.1473C80.2356 94.3609 80.3228 94.5746 80.6049 94.6466C80.6813 94.5687 80.7571 94.4859 80.8387 94.4093C80.9785 94.278 81.1401 94.2567 81.2519 94.3496C81.3646 94.4433 81.3971 94.6259 81.3274 94.7732C81.1433 95.1623 80.6371 95.3408 80.2451 95.1547C79.6604 94.877 79.423 94.1738 79.733 93.5823C80.0514 92.9748 80.5522 92.5709 81.2022 92.3567C81.3822 92.2975 81.5695 92.2608 81.7542 92.2135C81.7358 92.1584 81.7344 92.1118 81.7104 92.0891C81.1891 91.5955 80.7902 91.0039 80.3763 90.4247C78.8204 88.2474 77.2656 86.0692 75.7107 83.8911C75.3953 83.4493 75.0388 83.0496 74.5827 82.7453C74.2744 82.5396 74.1308 82.4724 73.7186 82.3863C73.1696 83.3002 72.9834 84.2582 73.373 85.2924C73.5712 85.8184 73.8683 86.292 74.1568 86.7693C74.9932 88.1533 75.8345 89.5344 76.6752 90.9157C77.676 92.5602 78.6782 94.2038 79.6798 95.8478C80.2007 96.7027 80.7225 97.5571 81.2422 98.4127C81.493 98.8257 81.7 99.2556 81.8167 99.7303C82.0963 100.867 81.8541 101.91 81.2421 102.875C80.824 103.534 80.2612 104.058 79.5917 104.464C79.5334 104.499 79.4658 104.519 79.3672 104.562Z" fill="currentColor"/>
<path d="M92.2648 28.2185C92.1781 28.2513 92.1554 28.2534 92.1428 28.2657C91.4249 28.9706 90.5846 29.5169 89.771 30.0979C87.7973 31.5074 85.8247 32.9186 83.8503 34.3271C83.4231 34.6319 83.0428 34.9822 82.7546 35.4237C82.5878 35.6789 82.4359 35.9428 82.3762 36.2187C82.4028 36.2702 82.4071 36.2951 82.421 36.303C83.3884 36.8559 84.389 37.0668 85.4454 36.5672C85.8101 36.3946 86.1721 36.2113 86.5169 36.0024C89.2003 34.3766 91.8789 32.7428 94.5596 31.1127C95.908 30.2927 97.2564 29.4723 98.6083 28.658C99.1944 28.305 99.8317 28.1023 100.518 28.0688C101.189 28.0362 101.824 28.2067 102.414 28.496C103.354 28.9562 104.067 29.6649 104.593 30.6455C104.468 30.6242 104.392 30.6265 104.33 30.5984C103.806 30.3618 103.277 30.3931 102.755 30.5855C102.377 30.725 101.999 30.8762 101.641 31.0603C99.3301 32.2477 97.0249 33.4462 94.7172 34.6398C93.2983 35.3737 91.8785 36.1056 90.459 36.8382C89.6893 37.2355 88.9209 37.6352 88.1493 38.0287C87.7726 38.2207 87.3992 38.4194 86.9822 38.5213C86.2645 38.6967 85.5698 38.6313 84.8894 38.3558C84.3866 38.1522 83.9308 37.865 83.4824 37.5652C83.1943 37.3727 82.9131 37.1698 82.6242 36.9785C82.499 36.8956 82.3622 36.8301 82.202 36.7406C82.1424 36.894 82.0885 37.0141 82.0484 37.1386C81.8656 37.706 81.698 38.2778 81.4137 38.8079C80.7276 40.0874 79.6923 40.9594 78.3406 41.4667C78.2703 41.493 78.1913 41.4973 78.1157 41.5073C78.1013 41.5092 78.0839 41.4896 78.0678 41.4799C78.0617 41.4456 78.041 41.4054 78.0518 41.3778C78.1646 41.0913 78.2861 40.8084 78.3983 40.5219C78.7491 39.626 79.1168 38.736 79.439 37.8299C79.6512 37.2329 79.8133 36.6163 79.9678 36.001C80.3079 34.6479 81.0278 33.5337 82.0645 32.619C82.6273 32.1225 83.2093 31.6474 83.7881 31.1693C85.1539 30.0414 86.5224 28.917 87.8907 27.7922C88.1583 27.5721 88.4366 27.3642 88.6964 27.1354C88.8538 26.9966 89.004 26.8415 89.1241 26.6704C89.377 26.3098 89.4038 25.9218 89.1923 25.5274C89.1476 25.4443 89.0939 25.366 89.0323 25.2659C89.099 25.2445 89.1518 25.2072 89.1926 25.2176C90.2437 25.4822 91.3198 25.5491 92.3945 25.627C92.4711 25.6326 92.5488 25.6265 92.6253 25.6329C92.8194 25.6492 92.908 25.7236 92.9086 25.9262C92.9093 26.2327 92.8979 26.5409 92.8628 26.845C92.8319 27.1119 92.7463 27.3722 92.7127 27.6388C92.6792 27.9046 92.653 28.1767 92.6717 28.4425C92.7143 29.0471 93.0545 29.4722 93.552 29.7886C93.9227 30.0245 94.3462 29.8534 94.5848 29.5727C94.6498 29.4962 94.654 29.391 94.5798 29.3079C94.5034 29.2224 94.4119 29.1501 94.3383 29.0626C94.2694 28.9806 94.2789 28.8804 94.3285 28.7919C94.401 28.6627 94.5569 28.5911 94.6666 28.6261C95.1556 28.7821 95.3954 29.4309 95.1227 29.8594C94.8025 30.3626 94.1858 30.5626 93.6586 30.2952C92.9126 29.9169 92.4233 29.3309 92.3093 28.4752C92.2997 28.4032 92.2845 28.3317 92.2648 28.2185Z" fill="currentColor"/>
<path d="M65.7995 19.7432C65.5626 19.5812 65.5147 19.3836 65.5414 19.1624C65.6011 18.6685 66.0148 18.2859 66.5089 18.2453C67.3553 18.1758 67.7693 18.7644 67.8359 19.3851C67.8628 19.6367 67.8292 19.8851 67.7471 20.1257C67.5491 20.7056 67.2193 21.1919 66.727 21.5631C66.2445 21.927 65.7058 22.1773 65.1298 22.3497C64.5954 22.5098 64.0553 22.652 63.5244 22.823C63.1232 22.9521 62.7326 23.114 62.3042 23.2736C62.2228 23.2039 62.1163 23.1248 62.0242 23.0316C61.5082 22.5095 61.0409 21.9499 60.6837 21.3031C60.1527 20.3413 59.9772 19.3187 60.1333 18.2343C60.2785 17.2249 60.4197 16.2148 60.5624 15.205C60.6998 14.2337 60.8327 13.2618 60.9756 12.2913C61.0763 11.6076 61.0652 11.4749 60.7893 10.843C60.8073 10.8103 60.8171 10.7611 60.8447 10.7473C63.2512 9.5422 65.6075 8.23119 68.1465 7.2525C68.2413 7.32992 68.3354 7.39331 68.4132 7.47247C68.8859 7.95302 69.3625 8.43001 69.8226 8.92236C70.1915 9.31713 70.5089 9.74742 70.7256 10.2535C70.9807 10.8495 71.0122 11.4505 70.8289 12.0594C70.6792 12.5566 70.4936 13.0431 70.3212 13.5333C70.1313 14.074 69.7488 14.4342 69.2421 14.6778C68.7183 14.9298 68.1662 15.0956 67.6028 15.2286C67.1156 15.3437 66.6301 15.4674 66.1399 15.568C65.6819 15.662 65.2584 15.8437 64.8433 16.0455C64.6548 16.1372 64.4738 16.2567 64.3146 16.3932C64.0311 16.6365 64.0213 16.9173 64.2622 17.2013C64.347 17.3012 64.4391 17.3948 64.5153 17.4777C64.472 17.6851 64.3478 17.764 64.1887 17.8019C64.0269 17.8404 63.8846 17.7963 63.7591 17.6906C63.3883 17.3782 63.3062 16.8541 63.5586 16.4368C63.7867 16.0595 64.1317 15.817 64.5103 15.619C64.9543 15.3866 65.4119 15.1778 65.8988 15.0554C66.4827 14.9086 66.824 14.5294 66.9963 13.9778C67.1339 13.537 67.2458 13.0879 67.3856 12.6477C67.6067 11.9516 67.547 11.2791 67.2435 10.6234C66.938 9.96322 66.485 9.42733 65.874 8.99663C65.5177 9.0993 65.2511 9.31958 65.0331 9.58656C64.8646 9.7927 64.7229 10.028 64.6074 10.2687C64.4239 10.6508 64.3009 11.0565 64.2137 11.4735C63.887 13.0365 63.5539 14.5981 63.2246 16.1604C63.0899 16.8001 62.9597 17.4406 62.8263 18.0806C62.685 18.7584 62.7546 19.4222 62.9671 20.0738C63.12 20.5426 63.3918 20.9366 63.7754 21.2466C63.8934 21.342 64.0285 21.4239 64.168 21.4836C64.609 21.672 65.0761 21.6815 65.5298 21.5753C66.0746 21.4479 66.421 21.0618 66.6356 20.5586C66.6955 20.4183 66.7447 20.2649 66.7555 20.1145C66.7663 19.9663 66.7465 19.8057 66.6971 19.6657C66.6036 19.4001 66.3213 19.3207 66.083 19.4819C65.9894 19.5453 65.9142 19.636 65.7995 19.7432Z" fill="currentColor"/>
<path d="M100.999 65.8113C100.788 65.3157 100.432 64.9514 99.9575 64.7029C99.5816 64.5057 99.1868 64.3502 98.7703 64.2599C97.9803 64.0884 97.1894 63.9211 96.3989 63.7524C95.3078 63.5197 94.2171 63.2858 93.1256 63.0556C92.6924 62.9643 92.2587 62.8746 91.8229 62.7974C91.102 62.6695 90.4019 62.7682 89.7269 63.0366C89.3454 63.1884 89.0357 63.4452 88.7599 63.7504C88.3903 64.1597 88.1682 65.2394 88.6062 65.9319C88.9254 66.4364 89.4092 66.6958 89.9982 66.7464C90.1259 66.7573 90.2682 66.7198 90.3885 66.6685C90.6178 66.5709 90.6835 66.2867 90.5319 66.0839C90.4549 65.9808 90.3579 65.8928 90.2642 65.7918C90.3938 65.5864 90.5724 65.5272 90.7713 65.538C91.1422 65.5583 91.434 65.7233 91.6179 66.0551C92.0123 66.7669 91.6014 67.6531 90.8005 67.7995C90.4552 67.8626 90.112 67.834 89.7773 67.7078C89.0194 67.4218 88.4704 66.9005 88.1025 66.1939C87.9258 65.8546 87.788 65.4914 87.6664 65.1278C87.4895 64.5987 87.3531 64.0563 87.1809 63.5256C87.0507 63.1243 86.8916 62.7325 86.7286 62.2912C86.7732 62.2379 86.8353 62.1427 86.9169 62.0695C87.2463 61.7738 87.5713 61.4719 87.9168 61.1958C89.1307 60.2252 90.5071 59.9072 92.0381 60.156C93.2725 60.3567 94.5136 60.5165 95.7522 60.6916C96.3998 60.7831 97.0496 60.859 97.6959 60.9589C98.4157 61.0703 98.4831 61.0706 99.1498 60.7847C99.3266 60.8268 99.3563 60.9973 99.4228 61.126C99.7491 61.7589 100.066 62.3963 100.385 63.0328C100.773 63.8071 101.176 64.5745 101.543 65.3587C101.942 66.2124 102.308 67.0819 102.686 67.9454C102.709 67.9972 102.714 68.0569 102.733 68.141C102.691 68.2042 102.649 68.2922 102.584 68.357C102.149 68.7927 101.718 69.2341 101.265 69.6521C100.969 69.9258 100.655 70.1859 100.322 70.4121C99.7848 70.7769 99.1869 70.9834 98.5258 70.9237C98.2975 70.903 98.067 70.8586 97.8488 70.7893C97.3907 70.6436 96.9423 70.4674 96.4858 70.3163C95.9364 70.1345 95.5831 69.7502 95.3351 69.2475C95.1214 68.814 94.9629 68.3612 94.8554 67.8902C94.7354 67.3651 94.6079 66.8416 94.494 66.3153C94.3874 65.8227 94.21 65.3539 94.0008 64.9004C93.8902 64.6605 93.7264 64.4336 93.5441 64.2412C93.3118 63.9962 93.0884 64.0106 92.8313 64.2297C92.7731 64.2793 92.7286 64.3447 92.6716 64.3962C92.5026 64.5491 92.2902 64.4857 92.232 64.2647C92.1743 64.0452 92.2031 63.8481 92.3777 63.6823C92.7077 63.3687 93.2108 63.3181 93.6017 63.5731C94.0028 63.8348 94.2651 64.2168 94.455 64.6424C94.6506 65.0808 94.8238 65.5307 94.9804 65.9847C95.1127 66.368 95.3266 66.6684 95.6903 66.8533C95.7585 66.8879 95.832 66.914 95.9055 66.936C96.4771 67.1067 97.0434 67.3004 97.623 67.438C98.2616 67.5896 98.8909 67.4919 99.4764 67.1973C100.052 66.9077 100.532 66.4942 100.92 65.9778C100.954 65.9331 100.969 65.8751 100.999 65.8113Z" fill="currentColor"/>
<path d="M19.7498 44.198C19.5479 44.475 19.3055 44.5031 19.0511 44.442C18.5606 44.3242 18.2048 43.8192 18.2387 43.315C18.2774 42.741 18.6612 42.3016 19.2293 42.19C19.5376 42.1295 19.839 42.1596 20.1394 42.2585C20.9542 42.5269 21.5183 43.0819 21.9219 43.8142C22.0982 44.1338 22.2401 44.47 22.3379 44.8265C22.4954 45.4014 22.6686 45.9726 22.8529 46.5397C22.977 46.9217 23.1314 47.294 23.2797 47.6906C23.2461 47.741 23.2127 47.8125 23.1606 47.8654C22.6316 48.4022 22.0608 48.889 21.4076 49.2694C20.4968 49.7997 19.5165 50.0184 18.4671 49.8788C17.1513 49.7037 15.8367 49.5209 14.5217 49.3393C13.7593 49.2341 12.9977 49.1242 12.2354 49.0184C12.102 48.9999 11.9672 48.992 11.8331 48.9782C11.5574 48.9502 11.2965 48.9893 11.0552 49.135C10.9915 49.1735 10.9196 49.1982 10.8238 49.2418C10.7457 49.1205 10.6661 49.0172 10.6076 48.9033C8.3395 44.4887 7.48788 42.6639 7.28449 41.7717C8.00241 41.1311 8.62917 40.3686 9.41902 39.7789C9.61835 39.6301 9.83568 39.5033 10.053 39.3812C10.7334 38.9993 11.4531 38.9905 12.1801 39.2028C12.6227 39.3322 13.053 39.5036 13.4887 39.6563C14.0674 39.8593 14.4619 40.2503 14.7071 40.8116C14.8925 41.236 15.0557 41.6662 15.1629 42.1169C15.2654 42.5474 15.3794 42.9757 15.4626 43.41C15.5646 43.943 15.7318 44.4543 15.9472 44.9484C16.0536 45.1928 16.1949 45.4286 16.3566 45.6409C16.6188 45.9852 16.9167 45.9952 17.2386 45.7041C17.2669 45.6785 17.2869 45.6435 17.3151 45.6178C17.5094 45.4398 17.7292 45.5059 17.7839 45.7575C17.8377 46.0053 17.7805 46.2118 17.5712 46.371C17.1971 46.6553 16.7958 46.6702 16.3925 46.4082C16.0067 46.1576 15.7578 45.7901 15.5731 45.3852C15.3737 44.9484 15.1825 44.5031 15.0429 44.0448C14.881 43.5136 14.5423 43.1859 14.0356 43.0233C13.5047 42.8529 12.9713 42.6804 12.4274 42.5626C11.9366 42.4563 11.4341 42.4648 10.946 42.6365C10.1377 42.9208 9.51243 43.4357 8.99953 44.1325C9.23771 44.7572 9.68611 45.1621 10.2729 45.4023C10.6982 45.5763 11.1444 45.7097 11.5921 45.8159C12.3969 46.0065 13.21 46.1621 14.0193 46.3342C15.0358 46.5504 16.0511 46.7728 17.0687 46.9838C17.5207 47.0775 17.9742 47.1758 18.432 47.2265C19.2161 47.3132 19.971 47.1884 20.6507 46.7659C21.0128 46.5406 21.337 46.2632 21.4923 45.8442C21.6642 45.3802 21.6856 44.9028 21.5708 44.424C21.5115 44.1765 21.3677 43.9691 21.1873 43.7889C20.906 43.5077 20.561 43.3483 20.18 43.2544C20.0038 43.211 19.836 43.2376 19.6721 43.3051C19.4037 43.4154 19.3195 43.6819 19.4869 43.9153C19.5528 44.0072 19.6413 44.0828 19.7498 44.198Z" fill="currentColor"/>
<path d="M41.8181 102.764C41.2167 102.14 40.6465 101.567 40.0992 100.974C39.7733 100.62 39.5035 100.226 39.3043 99.7772C39.0406 99.1842 38.9911 98.5825 39.1742 97.9739C39.3459 97.4035 39.5625 96.8462 39.7719 96.2878C39.9129 95.9119 40.1815 95.632 40.5334 95.4511C40.8573 95.2846 41.1897 95.1189 41.5372 95.0173C42.183 94.8286 42.8417 94.6832 43.4966 94.5267C44.1917 94.3608 44.8742 94.1636 45.4794 93.7668C45.5906 93.6939 45.701 93.61 45.7863 93.5095C45.9703 93.2926 45.9614 93.0501 45.7773 92.8279C45.7285 92.769 45.6626 92.7247 45.6105 92.6682C45.4565 92.5012 45.4788 92.3549 45.6706 92.2523C45.8992 92.13 46.0646 92.1463 46.2542 92.3098C46.6314 92.6352 46.7127 93.1393 46.4497 93.5611C46.3056 93.7923 46.1162 93.9805 45.8935 94.1402C45.4332 94.4699 44.908 94.6603 44.3868 94.8598C44.2432 94.9148 44.096 94.9622 43.9477 95.0026C43.5665 95.1061 43.316 95.3595 43.1466 95.7006C43.0785 95.8376 43.0273 95.9846 42.9831 96.1316C42.8612 96.537 42.7574 96.9482 42.6277 97.351C42.3898 98.0898 42.4816 98.7965 42.8174 99.479C43.1206 100.095 43.5731 100.585 44.1379 100.996C44.5031 100.905 44.7592 100.668 44.9811 100.408C45.1537 100.207 45.2946 99.9695 45.4108 99.7294C45.6212 99.2947 45.7419 98.8274 45.8416 98.3554C46.227 96.5295 46.6147 94.7041 46.9992 92.878C47.0785 92.5014 47.1675 92.1253 47.2177 91.7445C47.3342 90.8592 47.2005 90.0207 46.712 89.2522C46.1575 88.3797 45.1191 88.2348 44.429 88.4369C43.7253 88.643 43.2963 89.3812 43.2401 89.9999C43.2384 90.019 43.2389 90.0387 43.2413 90.0577C43.2692 90.274 43.3164 90.4886 43.5497 90.5706C43.7552 90.6428 43.9238 90.5577 44.0568 90.3909C44.0913 90.3477 44.1428 90.3179 44.1899 90.2791C44.3943 90.3351 44.4525 90.4935 44.4713 90.6698C44.512 91.0523 44.2476 91.4833 43.8822 91.6457C43.1023 91.9923 42.2801 91.5229 42.1854 90.6581C42.1609 90.4347 42.1888 90.194 42.2458 89.9751C42.4562 89.1671 42.9675 88.5836 43.6784 88.1709C44.0447 87.9583 44.4269 87.778 44.8403 87.6655C45.323 87.5343 45.8034 87.393 46.2787 87.2373C46.752 87.0823 47.2177 86.9043 47.72 86.7245C47.9659 86.9013 48.1709 87.1582 48.3882 87.3974C48.8959 87.956 49.3331 88.5636 49.6067 89.2762C49.9174 90.0853 50.0006 90.9178 49.8778 91.774C49.7686 92.5358 49.664 93.2984 49.5569 94.0606C49.3885 95.2602 49.231 96.4615 49.0457 97.6586C48.9673 98.1645 48.9245 98.6508 49.2083 99.1094C49.2165 99.1226 49.2064 99.147 49.2014 99.2091C49.0789 99.2834 48.9408 99.3828 48.7899 99.4563C46.4929 100.577 44.2617 101.839 41.8181 102.764Z" fill="currentColor"/>
<path d="M7.62072 69.0555C7.78738 68.2003 7.91812 67.3431 8.26426 66.5432C8.41648 66.1915 8.58487 65.8409 8.79324 65.5205C9.23737 64.8377 9.84795 64.3412 10.637 64.115C11.2277 63.9457 11.8327 63.8234 12.4351 63.6987C14.0172 63.3711 15.6018 63.0555 17.1845 62.7305C17.6045 62.6443 18.0037 62.507 18.2878 62.135C18.7281 62.3379 19.0655 62.6589 19.4564 62.8948C19.8519 63.1333 20.2373 63.3889 20.6381 63.6178C21.0555 63.8563 21.4856 64.0731 21.9113 64.2972C22.32 64.5124 22.7274 64.7302 23.1406 64.9366C23.5502 65.1411 23.9795 65.3091 24.3666 65.5949C24.1084 66.3575 23.9332 67.1277 23.6219 67.8519C23.2639 68.6848 22.6281 69.2632 21.8345 69.6657C21.3547 69.9091 20.8493 70.1018 20.3579 70.323C19.9693 70.4979 19.5807 70.496 19.1764 70.3753C18.5752 70.1959 18.0501 69.8752 17.5561 69.5069C17.032 69.1162 16.5372 68.6863 16.0209 68.2847C15.718 68.049 15.4044 67.8253 15.0831 67.6154C14.9409 67.5223 14.7718 67.4626 14.6073 67.4127C14.314 67.3239 14.0714 67.4557 13.9695 67.7456C13.9188 67.89 13.8891 68.0423 13.8309 68.1833C13.8012 68.2552 13.7174 68.288 13.6352 68.2578C13.4184 68.1783 13.2838 68.0277 13.2586 67.7927C13.201 67.2575 13.5841 66.81 14.1256 66.7837C14.4806 66.7665 14.8198 66.8406 15.1201 67.0291C15.5269 67.2843 15.9233 67.5567 16.3199 67.828C16.4626 67.9255 16.5955 68.038 16.728 68.1492C17.1219 68.4796 17.5797 68.513 18.0363 68.367C18.6217 68.1798 19.1992 67.9603 19.7637 67.7169C20.8265 67.2586 21.451 66.4134 21.78 65.3283C21.8374 65.1387 21.7835 65.0371 21.6139 64.9533C21.2371 64.767 20.8312 64.7717 20.4279 64.7758C19.9243 64.7809 19.4364 64.8937 18.9537 65.0277C17.5642 65.4137 16.175 65.8012 14.7856 66.1876C14.0441 66.3938 13.3015 66.5967 12.5607 66.8055C11.9926 66.9656 11.4976 67.2484 11.102 67.6941C10.0009 68.9346 10.012 70.6132 11.2459 71.8438C11.4545 72.0518 11.701 72.2017 11.9819 72.2849C12.4852 72.4336 12.9369 72.3098 13.3275 71.9768C13.59 71.7529 13.634 71.3849 13.4494 71.1462C13.3649 71.0371 13.2568 70.9584 13.1141 70.9395C13.022 70.9273 12.9303 70.914 12.8269 70.8996C12.7714 70.5691 12.9056 70.3524 13.1604 70.2166C13.5181 70.0258 13.8767 70.0773 14.1954 70.3087C14.6066 70.6075 14.8467 71.0336 14.8795 71.5311C14.9114 72.0132 14.7129 72.4351 14.3267 72.7453C13.6414 73.2957 12.8843 73.3417 12.0994 73.0117C11.5819 72.7942 11.1329 72.4601 10.7083 72.0922C10.1398 71.5994 9.63316 71.0458 9.10764 70.51C8.67695 70.0708 8.21858 69.6588 7.77395 69.2331C7.71972 69.1811 7.67515 69.1191 7.62072 69.0555Z" fill="currentColor"/>
<path d="M47.849 18.3326C47.4362 18.9743 47.0027 19.6095 46.6104 20.2691C46.2171 20.9303 45.8627 21.6146 45.4954 22.291C45.1295 22.965 44.8408 23.6801 44.422 24.3593C44.2996 24.3212 44.194 24.2892 44.089 24.2556C43.5576 24.0853 43.0249 23.919 42.4954 23.7431C41.5096 23.4154 40.8104 22.7544 40.3504 21.8395C40.1001 21.3412 39.8808 20.8267 39.6639 20.3125C39.4827 19.8829 39.5289 19.4472 39.679 19.0151C39.8645 18.4812 40.1558 18.004 40.4909 17.5573C40.8834 17.0341 41.3096 16.5364 41.7154 16.0231C41.9181 15.7666 42.116 15.5055 42.2999 15.2355C42.3966 15.0939 42.4591 14.929 42.5362 14.774C42.7621 14.3189 42.5351 13.9986 42.1112 13.9096C42.0736 13.9016 42.0348 13.9003 41.9966 13.8952C41.8795 13.8795 41.7394 13.856 41.7407 13.7182C41.7416 13.6166 41.8055 13.4956 41.8787 13.419C42.0508 13.2388 42.2625 13.1907 42.5124 13.2691C43.0165 13.4271 43.2415 13.7224 43.2331 14.2446C43.229 14.5004 43.1597 14.7368 43.049 14.9656C42.8043 15.4715 42.4888 15.9305 42.1372 16.3664C42.0406 16.4863 41.9408 16.6037 41.8466 16.7256C41.5541 17.1042 41.4671 17.5333 41.6222 17.9796C41.8494 18.6336 42.0735 19.2934 42.3692 19.9175C42.8437 20.9192 43.6858 21.4977 44.7406 21.7841C44.8739 21.8203 44.9856 21.7815 45.0237 21.6607C45.11 21.3867 45.2115 21.1117 45.2479 20.8295C45.2844 20.5469 45.2753 20.2561 45.2017 19.9695C45.0822 19.5042 45.0023 19.0283 44.8751 18.5653C44.3248 16.5609 43.7666 14.5587 43.2047 12.5576C42.9129 11.5185 42.2463 10.8077 41.2329 10.4562C39.9123 9.99824 38.7166 10.5679 38.0478 11.3668C37.6077 11.8926 37.5516 12.5971 37.8883 13.1427C38.0262 13.3661 38.2068 13.5256 38.4861 13.5397C38.7652 13.5539 38.9691 13.4177 39.0507 13.1483C39.067 13.0944 39.0558 13.0326 39.0681 12.977C39.0799 12.924 39.106 12.8743 39.1229 12.8306C39.348 12.7525 39.5107 12.8546 39.6623 12.979C39.8048 13.096 39.8553 13.258 39.8739 13.4377C39.9146 13.8303 39.7922 14.1467 39.4961 14.4169C38.7777 15.0721 37.651 15.0433 37.0804 14.0625C36.9127 13.7741 36.8159 13.4657 36.8027 13.1313C36.7863 12.7187 36.8725 12.3303 37.0532 11.9583C37.2825 11.4862 37.5855 11.064 37.9348 10.6784C38.2964 10.2794 38.6742 9.89385 39.0601 9.51799C39.6669 8.92705 40.302 8.36429 40.8287 7.69541C40.8508 7.66733 40.8921 7.6542 40.9595 7.61239C41.1547 7.64901 41.3802 7.68727 41.604 7.73438C42.2634 7.87306 42.9192 8.02181 43.5463 8.27984C43.9232 8.4349 44.2775 8.62863 44.6044 8.86651C45.2808 9.35866 45.7488 10.0068 45.9584 10.8209C46.0925 11.342 46.1976 11.8709 46.3063 12.3982C46.5626 13.6417 46.8133 14.8863 47.0661 16.1305C47.1236 16.4133 47.1763 16.6972 47.2386 16.979C47.407 17.7407 47.4086 17.7404 47.849 18.3326Z" fill="currentColor"/>
<path d="M102.4 40.8973C102.187 42.0488 101.991 43.1649 101.41 44.17C100.862 45.1178 100.084 45.7578 99.0024 45.9972C98.5705 46.0927 98.137 46.1804 97.7035 46.2688C96.2133 46.5729 94.723 46.8755 93.2327 47.1791C93.1195 47.2022 93.0071 47.229 92.8943 47.2542C92.2724 47.3929 92.1957 47.4307 91.6973 47.8526C91.1985 47.5952 90.7686 47.2073 90.276 46.9189C89.761 46.6173 89.2527 46.3035 88.7299 46.016C88.224 45.7377 87.7034 45.4865 87.1895 45.2227C86.6783 44.9602 86.1444 44.7394 85.6411 44.4113C85.6717 44.3089 85.6967 44.22 85.725 44.132C85.8896 43.6191 86.0443 43.1025 86.2244 42.595C86.3268 42.3062 86.4513 42.0211 86.6009 41.7539C86.9718 41.0919 87.5456 40.6452 88.2177 40.3199C88.6335 40.1187 89.0637 39.9471 89.4781 39.7432C90.0384 39.4676 90.5903 39.4959 91.1514 39.7326C91.6339 39.9361 92.0815 40.2015 92.4958 40.516C93.0017 40.8999 93.4841 41.3146 93.984 41.7067C94.2712 41.9321 94.5648 42.1515 94.8712 42.3494C95.0297 42.4519 95.2179 42.5158 95.4005 42.5723C95.7009 42.6653 95.9397 42.5431 96.0421 42.2541C96.0868 42.128 96.1033 41.992 96.143 41.8638C96.186 41.7249 96.3429 41.689 96.4728 41.7739C96.6662 41.9003 96.7652 42.0744 96.7598 42.3059C96.7467 42.8604 96.2716 43.2522 95.8426 43.2309C95.5464 43.2161 95.2739 43.1528 95.0098 43.027C94.537 42.8021 94.1139 42.5014 93.7038 42.1805C93.5672 42.0737 93.4322 41.965 93.2987 41.8546C92.9434 41.5607 92.5243 41.4744 92.1023 41.6045C91.3128 41.8479 90.5096 42.0756 89.7988 42.5129C88.9716 43.0219 88.4743 43.783 88.2304 44.715C88.1894 44.8717 88.2454 44.9942 88.3898 45.0398C88.5903 45.1032 88.7951 45.167 89.0027 45.1913C89.602 45.2618 90.1952 45.197 90.7768 45.0456C91.5589 44.8422 92.339 44.6302 93.1177 44.4133C93.8223 44.2169 94.5225 44.0048 95.2267 43.8072C95.9497 43.6043 96.6757 43.4125 97.3994 43.2125C98.3473 42.9504 99.0377 42.3694 99.4518 41.4837C99.8233 40.6891 99.8173 39.8822 99.4302 39.0856C99.243 38.7004 99.0087 38.3518 98.6827 38.0688C98.1964 37.6466 97.5156 37.548 96.9558 37.8225C96.7599 37.9185 96.6034 38.0566 96.512 38.2591C96.3625 38.5899 96.5094 38.93 96.8565 39.0486C96.9096 39.0668 96.972 39.0565 97.0273 39.0706C97.0802 39.0839 97.1296 39.1119 97.1753 39.1312C97.2408 39.3552 97.1389 39.5171 97.0117 39.6663C96.9078 39.7883 96.767 39.8493 96.6093 39.8729C96.2877 39.9212 96.0024 39.8531 95.7479 39.6386C95.3901 39.337 95.1898 38.944 95.1314 38.496C95.0794 38.0969 95.2368 37.7306 95.5021 37.4352C95.943 36.9443 96.514 36.7519 97.1648 36.8016C97.5537 36.8315 97.9151 36.9596 98.2555 37.1517C98.6431 37.3705 99.0036 37.6287 99.3289 37.9295C99.7385 38.3085 100.136 38.701 100.527 39.0997C101.119 39.7043 101.689 40.3314 102.4 40.8973Z" fill="currentColor"/>
<path d="M65.5902 85.6657C65.6654 85.6657 65.7064 85.6559 65.7404 85.6671C66.3795 85.878 67.0213 86.0812 67.6551 86.3068C68.5944 86.6411 69.2437 87.3001 69.673 88.184C69.8916 88.6339 70.08 89.0984 70.2967 89.5493C70.5294 90.0339 70.5065 90.5147 70.3265 91.0057C70.1187 91.5727 69.8001 92.0775 69.4385 92.5528C69.0426 93.0731 68.6212 93.5741 68.2068 94.0801C67.9376 94.4087 67.6829 94.746 67.5127 95.1386C67.4669 95.244 67.4235 95.3527 67.3988 95.4643C67.3488 95.6907 67.4462 95.8919 67.6615 95.9846C67.8193 96.0525 67.9903 96.0893 68.1539 96.1443C68.2481 96.1761 68.2944 96.291 68.2587 96.3796C68.1724 96.5936 68.0225 96.7242 67.7879 96.7509C67.2914 96.8074 66.762 96.3663 66.7761 95.8707C66.7852 95.5556 66.8418 95.261 66.9852 94.9811C67.2143 94.5341 67.4857 94.1151 67.8011 93.724C67.946 93.5442 68.0903 93.3634 68.2248 93.1759C68.4643 92.842 68.5397 92.4699 68.4069 92.0795C68.1715 91.3877 67.9704 90.679 67.6283 90.0311C67.0932 89.0178 66.2373 88.4223 65.1059 88.1844C64.8701 88.4627 64.8115 88.7868 64.7784 89.1068C64.743 89.4501 64.7602 89.7942 64.8289 90.1398C65.0544 91.2745 65.4079 92.3744 65.7121 93.4876C66.0668 94.7862 66.4415 96.0795 66.7915 97.3794C67.0489 98.3354 67.6279 99.0199 68.5104 99.4344C69.7546 100.019 71.1447 99.63 71.9959 98.5912C72.4863 97.9926 72.3816 97.2097 72.1009 96.811C71.9984 96.6653 71.8767 96.5484 71.7074 96.4864C71.3605 96.3593 71.0528 96.5184 70.9503 96.8832C70.9256 96.971 70.9182 97.0638 70.9067 97.1323C70.7129 97.2316 70.5623 97.1812 70.4411 97.087C70.3394 97.0079 70.2339 96.8988 70.1944 96.7813C70.0715 96.416 70.0974 96.0625 70.3624 95.7512C70.6347 95.4312 70.9773 95.2209 71.3829 95.1365C71.8787 95.0334 72.3015 95.2301 72.6413 95.5684C73.1388 96.0637 73.3164 96.6789 73.1858 97.3705C73.125 97.693 73.0106 97.9999 72.8381 98.2833C72.5872 98.6956 72.3113 99.0898 71.9727 99.4344C71.4467 99.9697 70.9082 100.493 70.3823 101.028C70.0049 101.412 69.6356 101.804 69.2712 102.201C69.1572 102.325 69.0425 102.397 68.8698 102.361C68.1547 102.209 67.4348 102.079 66.7454 101.823C66.2368 101.635 65.76 101.391 65.3264 101.064C64.6893 100.582 64.2714 99.9523 64.053 99.1875C64.0054 99.0212 63.9609 98.8534 63.9266 98.6839C63.6863 97.4958 63.45 96.3069 63.2102 95.1187C63.0504 94.3271 62.888 93.5361 62.7245 92.7455C62.6407 92.3402 62.4545 91.9877 62.1364 91.6865C62.2009 91.5801 62.2519 91.4793 62.3179 91.3897C63.0277 90.4264 63.6359 89.4011 64.1826 88.3384C64.5875 87.5515 64.9844 86.7604 65.389 85.9733C65.4482 85.8582 65.5311 85.7551 65.5902 85.6657Z" fill="currentColor"/>
<path d="M27.9514 85.8256C27.5454 85.9069 27.1238 85.9635 26.7195 86.0803C26.323 86.1949 25.9443 86.3709 25.4955 86.544C25.5819 86.3316 25.6499 86.1801 25.7052 86.0241C25.7629 85.8611 25.8152 85.6955 25.8571 85.5279C25.8944 85.3791 25.917 85.2264 25.9408 85.0745C25.9673 84.9038 25.9918 84.7327 26.0095 84.5609C26.0271 84.3902 26.0351 84.2184 26.0488 84.027C26.1444 83.9959 26.2313 83.9466 26.3206 83.942C27.0232 83.9054 27.6836 83.7205 28.3074 83.3982C28.3407 83.3809 28.3779 83.3691 28.4145 83.3602C28.4285 83.3569 28.4461 83.369 28.495 83.3846C28.5024 83.5527 28.3805 83.691 28.3426 83.8501C28.3024 84.0183 28.2473 84.1832 28.2089 84.3516C28.1748 84.5014 28.153 84.6539 28.1284 84.8057C28.1008 84.9761 28.0742 85.1467 28.0508 85.3176C28.0278 85.4852 28.0805 85.6667 27.9514 85.8256Z" fill="currentColor"/>
<path d="M26.6507 28.4887C26.1965 28.3657 25.8125 28.2399 25.4191 28.1614C25.0281 28.0836 24.6275 28.0535 24.2069 27.9993C24.0548 27.581 24.0772 27.1276 23.9309 26.7162C23.7924 26.3269 23.6358 25.944 23.4699 25.5133C23.7282 25.5444 23.8902 25.6998 24.0899 25.7457C24.2955 25.793 24.4977 25.8565 24.7046 25.896C24.9116 25.9353 25.1222 25.9564 25.3317 25.9807C25.5403 26.0049 25.7496 26.0232 25.9465 26.0429C26.1218 26.2302 26.0646 26.4545 26.1002 26.6573C26.1401 26.8837 26.1763 27.1117 26.2346 27.3337C26.288 27.5367 26.3705 27.732 26.4371 27.9318C26.4979 28.1143 26.6286 28.2796 26.6507 28.4887Z" fill="currentColor"/>
<path d="M82.0227 24.1816C82.4367 24.0972 82.853 24.0386 83.2529 23.9233C83.6553 23.8071 84.0412 23.6342 84.4576 23.4775C84.5192 23.6613 84.3405 23.7783 84.3096 23.9347C84.2763 24.1033 84.2096 24.2649 84.1677 24.4322C84.1259 24.5992 84.0914 24.7686 84.0635 24.9386C84.0356 25.1084 84.017 25.2799 83.9998 25.4512C83.9828 25.6202 83.9727 25.7898 83.9575 25.9864C83.5223 26.0654 83.1038 26.1146 82.7011 26.2224C82.3156 26.3256 81.9466 26.4897 81.553 26.6334C81.5438 26.5965 81.5074 26.5374 81.5233 26.5015C81.8062 25.8611 81.919 25.1835 81.9773 24.4928C81.9851 24.399 82.0042 24.3061 82.0227 24.1816Z" fill="currentColor"/>
<path d="M85.8156 81.9721C85.9028 82.4045 85.9604 82.8217 86.0751 83.2227C86.1902 83.6255 86.362 84.0122 86.5096 84.4078C86.4885 84.4197 86.4484 84.4594 86.4288 84.451C85.788 84.1763 85.1175 84.0283 84.4248 83.9705C84.2933 83.9595 84.1623 83.941 84.0351 83.9264C83.9991 83.8553 83.9544 83.8067 83.9521 83.7563C83.9181 82.9775 83.7115 82.2457 83.3293 81.5392C83.4118 81.5292 83.4723 81.5021 83.5141 81.5197C84.1583 81.7912 84.8261 81.9414 85.5275 81.937C85.6192 81.9365 85.7111 81.9588 85.8156 81.9721Z" fill="currentColor"/>
</svg>
